PathFileType	4	(X/Y/Z)	Patient5_TMGait_0pt45_1_right_05.trc.trc
DataRate	CameraRate	NumFrames	NumMarkers	Units	OrigDataRate	OrigDataStartFrame	OrigNumFrames
59.829059829060	59.829059829060	7	32	mm	59.829059829060	36	       141
Frame#	Time	R.ASIS			L.ASIS			Chest			R.Shoulder			Neck			L.Shoulder			L.Elbow			L.Wrist			R.Elbow			R.Wrist			L.Thigh.Superior			L.Thigh.Lateral			L.Thigh.Inferior			L.Patella			L.Shank.Superior			L.Shank.Lateral			L.Shank.Inferior			L.Heel			L.Midfoot.Lateral			L.Midfoot.Superior			L.Toe			R.Thigh.Superior			R.Thigh.Lateral			R.Thigh.Inferior			R.Patella			R.Shank.Superior			R.Shank.Lateral			R.Shank.Inferior			R.Heel			R.Midfoot.Lateral			R.Midfoot.Superior			R.Toe			
		X1	Y1	Z1	X2	Y2	Z2	X3	Y3	Z3	X4	Y4	Z4	X5	Y5	Z5	X6	Y6	Z6	X7	Y7	Z7	X8	Y8	Z8	X9	Y9	Z9	X10	Y10	Z10	X11	Y11	Z11	X12	Y12	Z12	X13	Y13	Z13	X14	Y14	Z14	X15	Y15	Z15	X16	Y16	Z16	X17	Y17	Z17	X18	Y18	Z18	X19	Y19	Z19	X20	Y20	Z20	X21	Y21	Z21	X22	Y22	Z22	X23	Y23	Z23	X24	Y24	Z24	X25	Y25	Z25	X26	Y26	Z26	X27	Y27	Z27	X28	Y28	Z28	X29	Y29	Z29	X30	Y30	Z30	X31	Y31	Z31	X32	Y32	Z32	

36	8.515000000000	968.103708460936	970.276601284004	569.559291371346	932.361413937200	957.458477927794	332.535748459906	1007.650666775219	1430.471497843314	478.602032955846	925.472006612639	1484.654309334470	657.567052735242	880.684018567855	1552.501691428903	480.074552014702	923.228520987313	1505.961462298197	291.913150568411	798.455545525040	1208.329122451520	157.322234344601	879.968901671005	936.160371115963	108.113984240852	867.278586617085	1159.229083958094	794.496071577932	1075.147774075581	979.741379683584	700.461459211702	955.129580744264	737.969700255466	294.006155370919	877.054180237185	669.928515669952	254.482539603935	960.082532622728	606.706340801693	294.027821969153	943.172169181909	462.206139065817	281.029151424857	846.017142498998	387.639337883238	316.660429831478	740.473143783115	376.013471173039	252.257084520998	747.535942290886	311.251555738806	339.072785014350	502.190608931558	212.406344105064	356.943476826690	548.249477192850	126.497346919607	306.059906234525	663.451723738717	113.731067396295	339.927011261957	713.907458505580	39.246114368804	359.546037467721	1003.238118054729	744.543550414620	592.857403261511	926.380245157373	657.177852588067	640.890073352690	1012.908217797204	617.214722484426	565.686484563639	1021.381530287211	517.137527461046	589.005106176452	980.850533647397	415.884162655626	545.206536189490	910.784421239103	342.342077597371	623.763289515721	963.140528281243	277.134130357420	535.720899110426	840.721053796135	52.960035369235	491.420751410601	919.050707505448	24.349187463087	565.015107680292	1024.848435420080	88.497110694029	541.823580936870	1128.823270867150	44.166760672023	541.622288095690	
37	8.531714285714	970.239256964915	970.034589995137	570.644095979356	931.610045212569	957.197010596689	334.559567426257	1009.552295208361	1429.567765584190	481.264200626345	929.614161046483	1483.279991745841	661.447895529075	882.573528777277	1551.873742051559	484.691038410307	923.036511954436	1506.037543947044	295.910339620413	795.365119117279	1209.405073625842	161.959747406395	875.770017343553	936.813593519527	112.746009285282	873.261869339450	1158.075031307335	799.476704642834	1082.531734310397	981.335640805792	703.637950961127	962.324580108115	740.794674622763	291.761510048949	887.292036798937	670.437607344563	252.350634394895	973.839788375754	610.117439105733	290.193652284024	961.740129465307	464.377409433697	277.100033275942	862.664282631247	390.055459089150	313.193366756183	757.057777446609	381.235751611025	248.532946646998	761.730112687473	316.892361715033	335.579644202523	513.931934275178	232.089824330132	353.835840225729	553.839959605805	142.119977555998	303.702755789235	668.544649166021	121.490200180257	337.847159960005	712.589059983172	39.096878670937	357.820669305650	1001.145759592725	743.533054011750	592.398130838722	923.628338097172	657.289404931281	642.224684942132	1007.530759058063	615.760655024648	565.110850706468	1014.874979774948	515.969538127380	588.333122060305	973.499886870644	415.542944818365	545.277036153057	904.281393192143	342.061268339200	624.391269468589	955.714797010030	276.912634233149	535.779061672885	833.232730070455	52.850681351890	491.350497099840	911.464596392676	24.236624828418	565.050224486435	1017.290717095194	88.300966576396	541.579091032584	1121.289059268569	44.049305572907	541.565048806865	
38	8.548428571429	972.054362399316	969.857658549787	571.883008497749	930.730676352185	956.903438802976	336.450290829933	1011.136411052681	1428.556956247827	483.500624005841	933.477399791113	1481.672282150379	664.872805431873	884.211515910797	1551.107088572858	488.874670960567	922.429671022495	1506.032928076931	299.521997134010	792.322637881211	1209.882834292594	166.667541064976	872.152632732344	937.078477218244	117.357731558840	879.421666812065	1156.636220867626	804.033952896937	1089.697225337698	981.803821044957	707.214754499386	969.112473349252	744.157562908065	290.210152795159	897.255344342458	671.467452420321	250.941551061990	987.182870574956	614.425316334638	287.378628812265	979.986666869923	467.566798027601	274.277919388165	879.298591054395	393.269809315968	310.579341171933	773.837774457671	386.839321734128	245.544767927116	776.396134322993	322.942382202673	332.892898401357	526.823782651435	249.879767238125	351.457188773855	561.621926457339	157.137471372184	301.473398750968	675.704710995348	129.986967423695	335.799883359249	714.253669000834	39.815633902284	355.407314450549	998.959838758842	742.508882912988	591.935606393614	920.651319963431	657.461574579606	643.447229666633	1001.925012529169	614.370271307817	564.522361380779	1008.044987680540	514.942888282829	587.638833405684	965.876134432814	415.343597299144	545.309941667138	897.628281395070	341.918787047864	624.992472628659	948.185492959626	276.827678695030	535.810778030402	825.739453147651	52.800716684896	491.299102769961	903.873946390664	24.174771272806	565.096267983321	1009.733253528500	88.143944410382	541.349049718505	1113.739494430946	43.920039334808	541.515042816142	
39	8.565142857143	973.512758093263	969.846135771515	573.458357223216	929.844387403288	956.778762134895	338.291818440850	1012.390074973115	1427.653339171693	485.291695670180	936.999962263992	1480.063875603531	667.778019550610	885.619759818425	1550.393428245260	492.562529367581	921.472948098402	1506.143343157528	302.710146724733	789.398609696060	1209.968140084366	171.411023876695	869.019327379056	937.101312089032	121.884387828321	885.789735699731	1155.135397103225	808.058299832197	1096.603233770088	981.245946576522	711.050398303036	975.372459707259	748.122207970345	289.557838552727	906.749904908471	673.158156328930	250.350567228680	999.815790275009	619.666008544014	285.715833909790	997.546685350393	471.779076496248	272.491942286854	895.627807316046	397.210662553460	308.800624386126	790.399824455978	392.656123139967	243.444280839376	791.305679157586	329.137425798864	331.087641748506	540.466397077087	264.585334789018	350.112460893695	571.698133283913	170.534900866198	299.500126810978	685.274737137553	138.645981530573	333.790849372926	719.801496002496	41.663983229203	352.175013159558	996.740480165272	741.489625641988	591.750559920873	917.368014981878	657.686941722895	644.576491673821	996.210662698251	613.075831473061	564.142895815085	1000.967937198339	514.080094672787	587.109223761117	958.082319091126	415.303473123803	545.384235491387	890.799229923989	341.954272820933	625.574971703302	940.614658912425	276.899932231255	535.874717668796	818.228671634597	52.819144473571	491.292802028406	896.284072131793	24.171990001361	565.165540361812	1002.171435267516	88.036256979990	541.176469023252	1106.168254179793	43.800579881749	541.494092690491	
40	8.581857142857	974.637133269650	970.031884618005	575.399620761337	929.055674123089	956.974750107417	340.138744818948	1013.336930774799	1427.030030047170	486.640450127275	940.164288702140	1478.663115054764	670.138768435152	886.829767495206	1549.886631419201	495.729394730533	920.246421677054	1506.514310781217	305.465668376557	786.679405481531	1209.884703942084	176.080156818278	866.333672935140	937.043170114851	126.288900746854	892.294166209727	1153.794895723925	811.492786768973	1103.189588006485	979.910659657875	714.978848187108	981.058169613768	752.662456963854	289.874188772027	915.659600018396	675.562902325160	250.559560045858	1011.531398108287	625.757005560318	285.212126794256	1014.158717637079	476.944810956023	271.614825637704	911.464668017899	401.717789028839	307.787851059119	806.436081790394	398.429554858440	242.326225761710	806.322194658293	335.116885695200	330.152504803214	554.594574933625	275.196700687250	350.002369020363	584.120981175866	181.379164076452	297.887447385693	697.522941739019	146.834908375574	331.814934287781	729.978126037794	44.704024436102	348.034586139639	994.465676325050	740.481553224137	591.925008622481	913.734630016865	657.947586940835	645.611988772456	990.426681821491	611.882809377649	564.049061827952	993.694285538289	513.376218812705	586.815202506451	950.175074144941	415.417501428171	545.528102051896	883.767810568187	342.173351111783	626.132348783651	933.023472498415	277.125358407425	535.996240201546	810.688760983582	52.900530563461	491.344753987993	888.695394891127	24.219708226999	565.257808157189	994.601892650706	87.978891643410	541.079691323065	1098.573107311688	43.706836594370	541.507145944775	
41	8.598571428571	975.488854243537	970.368847695038	577.577490120998	928.429341835123	957.566545068968	342.005969862002	1014.038388791396	1426.784014089673	487.576642621283	943.001297812517	1477.620034500436	671.973319545022	887.882738559311	1549.676273050084	498.384104722202	918.848978334031	1507.207360249187	307.805378303088	784.234957501429	1209.827607552392	180.518921666372	864.116529650629	937.051158663721	130.548043072991	898.774319785138	1152.797983119223	814.344795666012	1109.380341899636	978.147360739401	718.823830319281	986.182264602421	757.672209183927	291.095044230406	923.940702573000	678.643355706006	251.454390298455	1022.213354765844	632.515104688410	285.771179389946	1029.669516352387	482.929270305077	271.513363273615	926.734497117158	406.565943869828	307.454906168285	821.779226438409	403.835893775343	242.216718666531	821.409234795215	340.481329200578	330.014053679802	569.152940066577	281.027472918375	351.172625912091	598.891174528932	188.946022143344	296.701369468639	712.590242274166	153.943264118454	329.869405729707	745.183595885542	48.720648195583	342.988978303781	992.057358578712	739.482506487412	592.371763228476	909.765744093265	658.218240359332	646.541245014779	984.567964709883	610.781311487171	564.193302301990	986.278651886082	512.804900697757	586.729088207924	942.191246595796	415.662425840631	545.730905494681	876.536626005873	342.553022668286	626.654834015743	925.410863927739	277.479090324190	536.174173653749	803.110529761914	53.029516329382	491.456878640413	881.103927912671	24.297194781095	565.362720285851	987.023895860726	87.965640680584	541.055637989198	1090.957190642403	43.648155795896	541.544638120077	
42	8.615285714286	976.129266968894	970.755946084212	579.776617090426	927.978510074850	958.542963666050	343.867178447580	1014.586751168030	1426.920898251610	488.157252629256	945.580738805552	1477.007146032334	673.340269405917	888.829121522156	1549.777832571715	500.562782443145	917.399133318317	1508.188681561486	309.765948831715	782.100613729740	1209.926710198011	184.565458556294	862.420525223316	937.231576987476	134.635284252217	905.015807595354	1152.261463721214	816.684608497973	1115.093653930828	976.344007557086	722.413154311451	990.785134427988	762.986642010673	293.050674847499	931.596899424323	682.277567688982	252.858028706610	1031.818514082502	639.688453675937	287.228577808549	1044.018365070605	489.548242622700	272.081052261244	941.458654965959	411.501977941375	307.724575621486	836.407169212691	408.521624607633	243.065630432239	836.611245367069	344.856660889690	330.560967575893	584.306817625867	281.782403088915	353.499048181741	615.966249075547	192.794135055422	295.962341648245	730.464948310143	159.454924924561	327.969643942464	765.375681822533	53.258295618410	337.173287608472	989.421423384746	738.484953213458	592.912086268738	905.527888097161	658.469545184634	647.348351911720	978.625695066759	609.755459703926	564.458413435448	978.798741535164	512.325049158866	586.767401578295	934.176153332119	416.003053166286	545.962589935207	869.148053205156	343.050103117124	627.134958784170	917.774600742094	277.921335847677	536.393265239753	795.488236515036	53.184686136569	491.621650489309	873.504407990955	24.380278827814	565.466310633763	979.439120614321	87.985366497777	541.087472883401	1083.327840363000	43.627117655925	541.589175140903	
